
        <svg xmlns="http://www.w3.org/2000/svg" xmlns:xlink="http://www.w3.org/1999/xlink" version="1.1" width="3147.686919297563" height="722.9274699615702" viewBox="0 0 3147.686919297563 722.9274699615702">
			
			<g transform="scale(7.384345964878143) translate(10, 10)">
				<defs id="SvgjsDefs1261"/><g id="SvgjsG1262" featureKey="symbolContainer" transform="matrix(0.95,0,0,0.95,0,0)" fill="#000"><rect width="79" height="82" rx="8"/></g><g id="SvgjsG1263" featureKey="monogramFeature-0" transform="matrix(1.1801336505868492,0,0,1.1801336505868492,18.003193501695193,-6.092854373577946)" fill="#ffffff"><path d="M0.72 16.560000000000002 l0 0 c0 -0.06 30.66 -0.48 30.84 -0.36 c0.78 0.72 1.14 7.44 1.26 15.42 c-3.18 -2.7 -8.1 -5.52 -14.88 -5.7 c-1.14 0 -2.04 0.84 -2.1 1.98 c0 1.14 0.84 2.04 1.98 2.1 c8.34 0.18 13.14 4.98 15 7.38 c0 10.5 -0.48 21.12 -1.08 21.72 c-1.26 1.08 -30.42 1.38 -31.2 0 c-0.6 -1.14 -0.6 -11.52 -0.48 -21.72 c6.06 0.48 15.72 2.46 17.4 9.9 c0.3 1.08 1.32 1.8 2.4 1.56 c1.14 -0.3 1.8 -1.32 1.56 -2.46 c-2.22 -9.96 -14.28 -12.48 -21.24 -13.02 c0.18 -8.94 0.42 -16.74 0.54 -16.8 z"/></g><g id="SvgjsG1264" featureKey="nameFeature-0" transform="matrix(1.2523032175436692,0,0,1.2523032175436692,93.24677239028638,6.573471137795671)" fill="#000"><path d="M11.56 11.52 c4.92 0 8.04 3.08 9.52 5.8 l-4.32 2.56 c-1.52 -2.12 -3 -3.2 -5.2 -3.2 c-1.96 0 -3.4 1.16 -3.4 2.76 s0.92 2.44 3.12 3.24 l1.92 0.68 c6.2 2.2 8.64 4.96 8.64 8.8 c0 5.64 -5.36 8.44 -10.12 8.44 c-5.04 0 -8.96 -3 -10.32 -6.92 l4.48 -2.36 c1 2.04 2.68 4 5.84 4 c2.28 0 4.04 -1 4.04 -3.08 c0 -2 -1.2 -2.88 -4.24 -4.04 l-1.72 -0.6 c-4.12 -1.48 -7.44 -3.52 -7.44 -8.4 c0 -4.48 4.2 -7.68 9.2 -7.68 z M31.040000000000003 11.719999999999999 l0 28.28 l-5.72 0 l0 -28.28 l5.72 0 z M40.92 11.719999999999999 l0 4.88 l-5.72 0 l0 -4.88 l5.72 0 z M40.92 19.2 l0 20.8 l-5.72 0 l0 -20.8 l5.72 0 z M55.24000000000001 18.84 c3.8 0 7 1.64 8.96 5 l-4.4 2.04 c-1.12 -1.12 -2.2 -1.96 -4.48 -1.96 c-2.6 0 -5.36 1.96 -5.36 5.72 c0 3.72 2.76 5.64 5.36 5.64 c2.28 0 3.36 -0.8 4.48 -1.92 l4.44 2.04 c-2 3.36 -5.12 4.92 -9 4.92 c-4.64 0 -10.84 -3.36 -10.84 -10.68 c0 -7.24 6.2 -10.8 10.84 -10.8 z M76.72 18.84 c4.72 0 11.24 3.56 10 12.76 l-15.12 0 c0.72 2.6 2.88 3.96 5.68 3.96 c2.6 0 3.6 -0.6 5.08 -1.4 l3.16 3.08 c-1.8 1.88 -4.36 3.16 -8.44 3.16 c-5.2 0 -11.28 -3.56 -11.28 -10.72 c0 -7.28 6.2 -10.84 10.92 -10.84 z M76.72 23.72 c-2.08 0 -4.28 1.28 -5.04 3.84 l10 0 c-0.64 -2.56 -2.92 -3.84 -4.96 -3.84 z M105.72 11.719999999999999 l5.72 0 l0 10.6 l0 17.68 l-5.72 0 l0 -2.56 c-0.12 0.84 -2.16 2.96 -5.76 2.96 c-4.76 0 -10.28 -3.44 -10.28 -10.84 c0 -7.16 5.52 -10.72 10.28 -10.72 c3.6 0 5.64 2.24 5.76 2.68 l0 -9.8 z M100.76 35.32 c2.8 0 5.24 -1.92 5.24 -5.76 c0 -3.72 -2.44 -5.64 -5.24 -5.64 c-2.88 0 -5.52 1.96 -5.52 5.64 c0 3.8 2.64 5.76 5.52 5.76 z M138.28 40 l-2.12 -5 l-13.52 0 l-2.12 5 l-6.2 0 l12.44 -28 l5.28 0 l12.48 28 l-6.24 0 z M124.68 30.240000000000002 l9.44 0 l-4.72 -11.08 z M162.76000000000002 11.719999999999999 l5.72 0 l0 10.6 l0 17.68 l-5.72 0 l0 -2.56 c-0.12 0.84 -2.16 2.96 -5.76 2.96 c-4.76 0 -10.28 -3.44 -10.28 -10.84 c0 -7.16 5.52 -10.72 10.28 -10.72 c3.6 0 5.64 2.24 5.76 2.68 l0 -9.8 z M157.8 35.32 c2.8 0 5.24 -1.92 5.24 -5.76 c0 -3.72 -2.44 -5.64 -5.24 -5.64 c-2.88 0 -5.52 1.96 -5.52 5.64 c0 3.8 2.64 5.76 5.52 5.76 z M195.20000000000005 19.12 l-9.32 20.88 l-5 0 l-9.32 -20.88 l5.72 0 l6.08 14 l6.12 -14 l5.72 0 z M204.00000000000006 11.719999999999999 l0 4.88 l-5.72 0 l0 -4.88 l5.72 0 z M204.00000000000006 19.2 l0 20.8 l-5.72 0 l0 -20.8 l5.72 0 z M218.32000000000005 18.84 c3.8 0 7 1.64 8.96 5 l-4.4 2.04 c-1.12 -1.12 -2.2 -1.96 -4.48 -1.96 c-2.6 0 -5.36 1.96 -5.36 5.72 c0 3.72 2.76 5.64 5.36 5.64 c2.28 0 3.36 -0.8 4.48 -1.92 l4.44 2.04 c-2 3.36 -5.12 4.92 -9 4.92 c-4.64 0 -10.84 -3.36 -10.84 -10.68 c0 -7.24 6.2 -10.8 10.84 -10.8 z M239.80000000000004 18.84 c4.72 0 11.24 3.56 10 12.76 l-15.12 0 c0.72 2.6 2.88 3.96 5.68 3.96 c2.6 0 3.6 -0.6 5.08 -1.4 l3.16 3.08 c-1.8 1.88 -4.36 3.16 -8.44 3.16 c-5.2 0 -11.28 -3.56 -11.28 -10.72 c0 -7.28 6.2 -10.84 10.92 -10.84 z M239.80000000000004 23.72 c-2.08 0 -4.28 1.28 -5.04 3.84 l10 0 c-0.64 -2.56 -2.92 -3.84 -4.96 -3.84 z"/></g>
			</g>
		</svg>
	